<?xml version="1.0" encoding="UTF-8"?>
<svg data-bbox="32 84 1028 964" xmlns="http://www.w3.org/2000/svg" height="1080" width="1080" viewBox="0 0 1080 1080" data-type="ugc">
    <g>
        <path fill="#051B2F" d="m545 84 8 1 43 15 57 19 37 13 65 22 36 12 48 17 33 11 41 14 19 7 14 5 2 2 1 215 1 1 109 1 1 6v341l-5 1-21-9-40-14-30-9-24-6-36-8h-5l-11 20-15 23-7 11-13 18-12 16-8 10-9 11-12 14-10 10-7 8-13 13-8 7-13 12-13 11-17 13-15 12-19 14-16 11-19 12-20 12-13 8-23 13-19 10-28 13-9 4-6 1-17-7-32-16-22-12-21-12-19-12-23-15-17-12-19-14-13-10-14-11-11-9-10-9-8-7-13-12-20-20-7-8-9-10-9-11-10-12-24-34-11-17-13-23-7-12-5-1-27 5-35 8-33 10-35 12-24 10-4-1V440l1-1 107-1 2-1 1-213 4-4 28-10 33-11 30-11 130-45 36-12 35-12 43-14 41-14zm-46 552-8 9-3 6 20-1 14-1 19 1 1-4-3-3-5-2-4-1-7 6h-7l-7-2-6-8z"/>
        <path fill="#976D29" d="M539 739h11l2 3 53 1 29 1 17 1 5 2 1 6v32l-1 7 2-1h11v-43l1-1 27 1 91 4 44 3v3l-13 20-14 19-14 17-12 14-14 15-16 16-8 7-12 11-11 9-12 10-20 15-16 11-21 14-21 13-15 9-24 14-29 16-13 7-6-2-30-16-27-16-30-18-36-24-18-13-18-14-13-11-11-9-15-14-12-12-2-1v-2h-2l-7-8-12-12-9-11-12-14-14-19-14-21v-2l4-1 52-3 43-2 55-2h8l1 42 3 26 5 24 5 15 7 16 9-3 3-2-9-21-6-21-3-14-2-16v-47l5-2 5-1 31-1h63z"/>
        <path fill="#C9CBCD" d="m545 84 8 1 43 15 57 19 37 13 65 22 36 12 48 17 33 11 41 14 19 7 14 5 2 2 1 215 1 1 109 1 1 6v341l-5 1-21-9-40-14-30-9-24-6-36-8h-5l-11 20-15 23-7 11-13 18-12 16-8 10-9 11-12 14-10 10-7 8-13 13-8 7-13 12-13 11-17 13-15 12-19 14-16 11-19 12-20 12-13 8-23 13-19 10-28 13-9 4-6 1-17-7-32-16-22-12-21-12-19-12-23-15-17-12-19-14-13-10-14-11-11-9-10-9-8-7-13-12-20-20-7-8-9-10-9-11-10-12-24-34-11-17-13-23-7-12-5-1-27 5-35 8-33 10-35 12-24 10-4-1V440l1-1 107-1 2-1 1-213 4-4 28-10 33-11 30-11 130-45 36-12 35-12 43-14 41-14zm-2 19-56 19-112 38-46 16-34 12-81 28-42 15-11 4-1 2 1 219H51l-1 1v304l6-1 24-9 24-8 38-10 40-8 17-3 5 1 13 25 12 20 18 27 14 19 13 16 7 8 18 20 8 9 8 7 14 14 8 7 14 12 17 14 38 28 17 12 16 10 21 13 28 16 35 18 22 11 5-1 50-25 23-13 17-10 22-14 18-12 15-11 21-16 16-13 13-11 11-9 15-14 26-26 7-8 12-14 11-13 15-20 13-18 12-19 12-21 10-19v-2l54 11 35 9 26 8 30 11 8 3V457l-39-1h-72V235l-27-10-36-13-29-10-37-13-36-12-112-38-38-13-30-10-38-13z"/>
        <path fill="#F7F7F8" d="m623 183 7 1 62 21 41 14 45 15 80 28 25 9 1 1 1 136-3 1-34-6-162-25-51-8-12-2z"/>
        <path fill="#B8161A" d="M679 748h18l91 4 44 3v3l-13 20-14 19-14 17-12 14-14 15-16 16-8 7-12 11-11 9-12 10-20 15-16 11-21 14-21 13-15 9-24 14-29 16-13 7-6-2-30-16-27-16-30-18-36-24-18-13-18-14-13-11-11-9-15-14-12-12-2-1v-2h-2l-7-8-12-12-9-11-12-14-14-19-14-21v-2l4-1 52-3 43-2 32-1h23v38l2 21 4 24 5 17 9 22 3 6v2l16-7 12-7h2l5 8-1 3-14 7-10 7v3l7 10 10 13 16 16 8 7 13 10 24 16 20 11 5-1 17-9 25-17 11-9 14-12 12-12 11-14 14-21 7-14 9-25 6-27 3-28z"/>
        <path fill="#FBFBFB" d="m818 480 61 1 6 16 19 61 8 25v4h2l1-7 24-72 9-26h62l-4 7-4 8v187l4 11 5 10v2l-10-2-29-9-22-6v-3l7-11V558l-14 40-12 36-16 47-12-1-4-9-15-49-9-28-12-38v-4h-2l1 2 1 100 4 9 4 7v3l-13-1-37-5-2-1 2-5 3-4 2-7V500l-3-9-6-8z"/>
        <path fill="#FAFBFB" d="M201 481h9l10 1 15 31 9 20 18 38 2 5v-76l-4-10-5-7v-2h56l-1 4-6 7-2 5v150l3 8 5 7-1 1-48 6-5-8-13-28-6-14-7-15-15-33v89l6 9 4 4v2l-9 2-35 6-12 2v-3l7-14 1-5V497l-5-10-3-3v-2z"/>
        <path fill="#FAFBFB" d="M485 480h96l16 3 10 5 10 10 4 10 1 9v22l-1 20-3 9-9 10-8 5-6 1 16 37 8 17 9 10 3 3v2h-19l-35-1-11-30-11-31v-3h-16l1 47 5 13 1 4-63 1 1-3 5-5 5-8 1-4V498l-5-10-5-6zm14 156-8 9-3 6 20-1 14-1 19 1 1-4-3-3-5-2-4-1-7 6h-7l-7-2-6-8z"/>
        <path fill="#FBFBFB" d="M682 480h86l-2 4-5 6-1 3v9l13 54 10 42 11 44 6 12 8 9v2l-38-4-25-2-4-2 4-5 1-3v-13l-4-16-43-2-1 9-1 5v13l4 7 2 4-52-2-5-1 2-4 6-8 4-10 6-25 13-53 7-29 5-20v-11l-5-8-2-2z"/>
        <path fill="#FBFBFB" d="M379 480h75l1 1v46l-4-1-18-10-9-3h-32l-6 3-3 5v98l5 5h29l-1-47-7-9-5-6 2-1 44-1h16v3l-6 8-2 5-1 78-1 3H353l-10-11-4-8-2-6-1-7V517l2-10 5-10 7-7 10-6 9-3z"/>
        <path fill="#956A24" d="M533 767h22l14 4 12 7 12 11 6 9 5 12 2 12v12l-3 14-7 14-9 10-9 8-13 6-11 3h-19l-15-4-12-7-10-9-8-11-5-12-2-10v-18l4-14 6-11 11-12 10-7 12-5z"/>
        <path fill="#930E13" d="M631 819h35l-2 13-5 17-8 19-8 15-10 14-12 14-20 20-14 11-15 11-25 15-5-2-20-11-14-10-12-9-13-11-14-14-9-11-9-12 1-2 11-3 12-5 12-4 11 11-1 15 7 4 5-2 8-6 16 4 6 12v2l11-1 5-11h2v-2l13-4 5 2 8 6 6-2 3-2-1-15 12-12 15 1 4-7-2-5-6-9 4-14h2l1-3 10-4 1-11-2-1z"/>
        <path fill="#FAFAFA" d="M82 482h64l-2 5-5 9v184l6 8v3l-41 11-20 6h-2l1-5 7-14 1-3V498l-4-8-5-6z"/>
        <path fill="#B8151A" d="M345 208h4v9l-6 6h-2l-2 4-6 7-8 16-3 8-4 1-17 2-6 3-4 5-1 3-16 4-15 5-13 7-7 7-4 10-1 39-9 3-8 6-10 15-3 9-1 8-4 5-2 6v27l3 12 5 9v2l5 2 11 1 1 1v6h-30V261l5-3 35-13 48-17 25-8z"/>
        <path fill="#F0F0F1" d="M294 288h30l16 2 6 4 4 6 1 3v80l-1 1-64 1h-36l-1-1v-76l4-6 9-6 10-4z"/>
        <path fill="#F1F1F2" d="M548 131h7l5 3 5 8 2 6 1 9 42-2 14 3 35 12 39 14 40 14 92 33 44 16 27 10 1 156v43l-7 1-14-1v-25l2-6 9-1V264l-24-9-45-16-42-15-37-13-42-15-43-15-38-13-9-2-47 2h-8v-17l-3-9-5-1-8 6-5 5-5 8-2 6-34 3-24 4-22 6-16 6-16 9-13 10-11 11-1 2h-2v-13l1-6v-9l-5-1-5 6-2 8v21l-15 8-8 8-7 11-4 13-2 16-4 1-20 1h-15l1-4 3-2 25-4 2-1 3-15 4-10 7-9 9-8 10-6 1-24 4-9 6-8 8-4 7 1 5 5 2 5v4l18-11 16-8 19-7 23-5 32-4 13-1 6-12 8-6z"/>
        <path fill="#C8CACC" d="M328 394h89l-1 10-5 17-6 11-7 4H219l-5-5-2-5-1-6v-19l5-5 44-1z"/>
        <path fill="#920C13" d="m552 234 21 6 18 7 3 2v129l-2 1-40-4-1-1V235z"/>
        <path fill="#920C13" d="m382 290 86 1 4 1v26l-3 22-6-2-10-4-11-2h-24l-20 4-14 5-14 7-6 4h-2l-1-49-3-8-1-4z"/>
        <path fill="#F3F3F3" d="M413 748h8l1 42 3 26 5 24 5 15 7 16 9-3 19-10 4-4-4-17 3 1 4 13-1 4-6 8 1 6 2 5 10-2h5l11 11-1 16 5 2 4 3-3 1-8-5 1-15-10-10-23 8-9 3-3 2 10 13 12 14 13 13 14 11 18 13 21 12 5 3 5-2 19-11 14-10 14-11 12-11 15-15 11-14 7-10 11-21 7-19 6-24-14 1h-21l-4 1-10-5-2-6-2-7 1-4 3 7 2 9 5 2 5-1 45-1 1 4-5 23-9 25-8 16-11 16-10 13-11 12-8 8-11 9-12 10-26 17-17 9-5-1-20-11-19-13-12-9-10-9-8-7-13-13-9-12-7-11 7-6 12-7 7-3-2-4-2-6-14 8-14 6h-2l-8-17-7-19-4-16-4-27-1-13v-32z"/>
        <path fill="#D01D11" d="M475 743h62l-1 5-3 5-16 4-11-8-5 2-4 2 1 16-8 7-3 4-17-1-2 6v4l1 3-11 1-10 10-1 4 3 6 6 5 1 2v12l9 3 5 3 4 16-5 5-13 7h-3l-9-21-6-21-3-14-2-16v-47l5-2 5-1z"/>
        <path fill="#920C13" d="m493 241 27 2v8l-28 1-3 3-3 9-2 19v11l35 1 1 3 1 50 3 7v17h-32l-5-9-9-15-1-18-1-32-1-14 5-27 4-9 7-6z"/>
        <path fill="#051B2F" d="M653 819h13l-2 13-5 17-8 19-8 15-10 14-12 14-20 20-14 11-15 11-25 15-5-2-20-11-14-10-12-9-13-11-14-14-9-11-9-12 1-2 7-2h5l11 14 12 13 15 14 14 10 10 7 13 8 8 4 24-16 12-9 13-11 3-3h2l1-3 5-4 7-8 10-12 11-18 7-16 5-15 5-19z"/>
        <path fill="#930D13" d="M552 743h53l29 1 17 1 5 2 1 6v32l-1 6h-35l1-5-3-5v-2l-17 1-7-8-4-4 1-15-7-4-4 2-9 6-16-4-4-8z"/>
        <path fill="#D01D11" d="m486 874 7 6 5 5-1 15 7 4 5-2 8-6 16 4 7 14 7 1v34l-1 5-5-2-12-7-12-8-13-10-8-7-10-9-8-8-11-14-4-6 12-5z"/>
        <path fill="#CE1F12" d="M458 227h16l9 1-1 5-6 14-2 2-59 3-35 2h-23l2-5 8-9 9-4 12-3 25-3z"/>
        <path fill="#F4F5F5" d="M533 767h22l14 4 12 7 12 11 6 9 5 12 2 12v12l-3 14-7 14-9 10-9 8-13 6-11 3h-19l-15-4-12-7-10-9-8-11-5-12-2-10v-18l4-14 6-11 11-12 10-7 12-5zm3 6-12 3-11 6-10 9-6 8-5 11-2 8v19l3 12 5 9 7 9 8 7 12 6 12 3h15l12-3 11-6 10-8 9-13 4-11 1-4v-20l-4-13-7-11-8-9-13-8-9-3-6-1z"/>
        <path fill="#CF1E12" d="M500 180h23l-1 2-15 5-16 9-10 8-8 9-5 6-21 2-50 2 6-8 13-10 14-8 15-6 21-6 25-4z"/>
        <path fill="#CC1B12" d="M422 340h15l16 3 12 5 11 10 9 16 6 18 4 18v14h-3l-7-28-6-16-7-11-7-6-10-4h-10l-8 4-8 8-8 13-1 3-11-1-1-4 7-19v-6l-1-1-39-1 1-3 15-6 21-5z"/>
        <path fill="#920C13" d="M552 180h17l12 1 5 4 3 6 3 20 1 13v16l-10-3-16-5-14-3-2-1v-47z"/>
        <path fill="#F6F7F7" d="M328 394h89l-1 10-3 1-2-1h-99l-92 1v16l-5 3h-2l-2-4v-19l5-5 44-1z"/>
        <path fill="#051B2F" d="M539 511h28l7 4 3 7v29l-3 6-3 3-3 1h-29z"/>
        <path fill="#F3F3F4" d="M373 680h12l7 2 7 6 3 6 1 4v8l-3 9-7 7-6 3-4 1h-10l-8-3-5-5-4-6-1-4v-8l3-8 7-8z"/>
        <path fill="#F2F3F3" d="M413 748h8l1 42 3 26 5 24 5 15 7 16 9-3 19-10 4-4-4-17 3 1 4 13-1 4-6 8 1 6 2 5 10-2h5l11 11-1 16 5 2 4 3-3 1-8-5 1-15-10-10-23 8-9 3-5 2 1-3 12-7 7-3-2-4-2-6-14 8-14 6h-2l-8-17-7-19-4-16-4-27-1-13v-32z"/>
        <path fill="#CA1A11" d="m552 234 11 3v23l-1 70-1 44h5v1h-14l-1-1V235z"/>
        <path fill="#CD2012" d="m382 290 86 1 4 1v7l-2 1-18 1-80 7-9 1-2-6-3-8-1-4z"/>
        <path fill="#051B2F" d="m689 246 7 1 13 4 6 5 3 6 1 11-2 7-4 4h-2l8 24-1 3-9-3-3-8-5-15-3-1v22l-9-2z"/>
        <path fill="#C8CACC" d="m634 201 9 3 29 9 36 12 49 16 50 16 72 24 1 5-9-2-43-14-30-10-26-8-21-7-48-15-49-16-20-7-1-5z"/>
        <path fill="#956A24" d="M618 795h60l-2 20-2 1-45 1-5 1-6-3-4-16z"/>
        <path fill="#F3F3F4" d="M448 389h8l6 7 3 7 1 5v18l-3 10-6 6h-8l-6-5-4-8-2-10 1-14 4-10z"/>
        <path fill="#F3F3F4" d="M446 676h11l7 2 1 2v9l-2 1-5-2h-13l-6 4-2 4v9l3 5 4 2h12v-7h-7l-1-1v-7l2-2h16v23l-10 4-4 1h-8l-9-3-7-6-3-7v-13l4-8 8-7z"/>
        <path fill="#051B2F" d="m720 522 2 1 12 57 2 13h-31l2-13 9-41z"/>
        <path fill="#920C13" d="M520 186h4l-1 37-12-1-22-3-9-1 1-5 11-12 10-7 15-7z"/>
        <path fill="#F1F2F2" d="M541 675h15l6 2v11l-5-1-6-2h-7l-2 3v2l12 3 8 5 3 5-1 9-5 6-9 3h-9l-8-3-1-1v-9l2-1 7 3h10l2-1-1-4-15-5-6-7v-9l6-7z"/>
        <path fill="#F2F2F2" d="M752 682h11l9 3 1 1v10l-9-3h-10l-1 4 10 3 8 4 4 5v10l-5 6-5 2h-14l-8-3v-11l13 4h8l-1-5-8-3-8-4-5-6v-9l5-6z"/>
        <path fill="#051B2F" d="m727 256 20 5 2 1v10l-13-3v12l9 1 3 2-1 9-11-2v13l8 1 7 2v10l-9-1-16-4v-55z"/>
        <path fill="#F1F2F2" d="m701 678 11 1 7 3v10h-4l-7-2h-7l-6 4-1 2v11l4 5 6 2 8-1 7-2v11l-7 3h-12l-8-3-6-5-5-10v-12l4-8 7-6z"/>
        <path fill="#940C13" d="m447 349 12 2 14 7h3l9 16 6 18 4 18v14h-3l-7-28-6-16-7-11-7-6-10-4h-10l-8 4-8 8-8 13-1 3h-5l1-4h2l1-7 8-16 8-7 7-3z"/>
        <path fill="#051B2F" d="m656 237 8 1 18 5-1 10-8-1-6-2v14l11 2v11l-11-2v24l-10-1-1-1z"/>
        <path fill="#051B2F" d="m783 271 6 1 6 4 5 10v4l-7 1-3-7-1-1h-5l-3 6v17l3 9 1 1h6l2-10-6-1v-8l13 3v18l-3 6-2 2-7 1-8-3-4-5-4-10-1-6v-14l3-10 6-7z"/>
        <path fill="#051B2F" d="m694 320 11 1 6 4 5 6 2 4 1 11-2 9-6 7-8 1-9-2z"/>
        <path fill="#EDEDEE" d="m643 397 5 2 5 8 3 15v9l-2 10-4 6-2 2h-5l-5-6-3-8-1-6v-15l3-11 4-5z"/>
        <path fill="#051B2F" d="m808 280 8 2v19l10 2v-18l7 1v49l-7-2-1-1v-20l-9-2v21l-8-1z"/>
        <path fill="#CB1B11" d="M552 180h17l12 1 5 4 2 3v6h-26v36l-9-1-2-1v-47z"/>
        <path fill="#F5F5F5" d="M563 396h17l5 2 5 6 2 5v13l-3 8-6 5h-18v-3l4-9v-15l-5-10z"/>
        <path fill="#051B2F" d="M659 313h6l5 5 2 5-1 7-3 4h-2l5 7 2-4h5l1 4-2 6 1 7 2 4-2 1-6-2-2-1-3 1h-7l-5-3-4-8v-8l3-6 1-3-1-8 2-5z"/>
        <path fill="#EFF0F0" d="M677 401h5l5 6 4 13v17l-3 9-4 4-7-1-4-6-2-7-1-14 2-13 3-6z"/>
        <path fill="#EEEFEF" d="M314 448h40l45 1 4 7-3 1h-90l-1-2 4-6z"/>
        <path fill="#960D13" d="m493 241 27 2v8l-28 1-3 3-3 9-3 28-3 1v26l1 29 2 5h-2l-3-5-1-18-1-32-1-14 5-27 4-9 7-6z"/>
        <path fill="#F1F2F2" d="M586 676h36v10h-13v34h-10l-1-1-1-33-11-1z"/>
        <path fill="#F2F2F3" d="M538 232h3l1 2v53l-1 2h-11l-1-1v-51l2-3z"/>
        <path fill="#F4F4F4" d="M391 361h16l-1 6-4 11-1 1-14 1h-24l1-8 4-8 2-2z"/>
        <path fill="#ECEDED" d="m502 810 5 1 22 13v9l-17 9-6 4-4-1-3-10v-14z"/>
        <path fill="#EAEAEB" d="m585 811 5 1 2 8v17l-3 9-5-1-22-12v-8l8-5z"/>
        <path fill="#F5F5F5" d="M530 293h10l1 1 1 14v33l-1 5h-11l-1-1v-51z"/>
        <path fill="#E6E7E8" d="m533 842 6 1 1 1v31l-7-1-14-7-7-6-3-4v-2z"/>
        <path fill="#F1F2F2" d="M308 686h10v32l18-1v10l-2 1-27 1v-42z"/>
        <path fill="#F6F6F6" d="M670 747h8l1 1v39l-1 8-62 1 3-5h50v-43z"/>
        <path fill="#F2F2F3" d="M540 158h3v16l-1 36-1 18h-7l-1-1v-55l3-9z"/>
        <path fill="#051B2F" d="M310 341h32v7l-63 1h-22v-7z"/>
        <path fill="#051B2F" d="M318 355h24v7l-84 1-1-1v-5l1-1z"/>
        <path fill="#051B2F" d="m339 369 3 1v6l-46 1h-39v-7z"/>
        <path fill="#051B2F" d="M298 327h44v6l-9 1-75 1-1-1v-5l1-1z"/>
        <path fill="#051B2F" d="M286 298h43l12 2 2 1-1 4-84 2 2-4 5-2z"/>
        <path fill="#051B2F" d="m723 326 11 1 8 2v7l-3 1-9-2v7l8 1 1 1v7l-9-1v8l12 2v8l-18-2-1-1z"/>
        <path fill="#051B2F" d="M294 313h48v6l-26 1-58 1-1-3 1-4z"/>
        <path fill="#051B2F" d="m838 288 17 4 7 2v9l-8-1v37l-2 1-6-2v-38l-8-2z"/>
        <path fill="#EEEFEF" d="M777 444h2l3 8-1 5h-59l-1-5 2-3 37-1 14-1z"/>
        <path fill="#051B2F" d="m828 346 12 3 4 5 1 9-3 5 2 9 2 7-7-1-4-13h-1l-1 12h-5l-1-1v-34z"/>
        <path fill="#051B2F" d="m378 690 7 1 6 5 1 9-3 6-6 4h-9l-6-5-2-5 1-7 5-6z"/>
        <path fill="#CC1B12" d="M520 186h4v7l-7 3-10 8-3 3h-2l-2 4-4 5-3 3-13-1 1-5 11-12 10-7 15-7z"/>
        <path fill="#051B2F" d="m757 265 8 1 1 1v54l-9-2z"/>
        <path fill="#F2F2F3" d="M645 677h11v44h-10l-1-1z"/>
        <path fill="#F2F2F3" d="M495 676h10v43l-1 1h-9l-1-1v-42z"/>
        <path fill="#F3F3F4" d="M458 227h9l-4 2-27 2-38 7-25 7-3 3-3 6h-10l2-5 8-9 9-4 12-3 25-3z"/>
        <path fill="#E0E1E2" d="m831 415 4 2 4 9 1 5v13l-3 9-2 2-5-1-4-8-1-6v-12l2-9z"/>
        <path fill="#051B2F" d="m807 342 14 2 1 1v7h-9v4l7 2v7l-7-1v7l9 2 1 1v6l-11-1-6-2v-34z"/>
        <path fill="#051B2F" d="m574 261 9 2 2 1v27l-1 11-10-3z"/>
        <path fill="#051B2F" d="m780 337 6 1 6 24 4-19 1-2h5l1 3-7 30-1 2-7-1-2-6-6-29z"/>
        <path fill="#956A24" d="M460 795h12l3 5-4 15-8 4h-3l-7-8-2-2v-5z"/>
        <path fill="#F0F1F1" d="m548 394 8 2 6 8 2 8-1 10-3 7-5 5-7 1-1-2 4-9 1-5-1-13-3-8-1-3z"/>
        <path fill="#F1F1F2" d="M466 185h5l-4 2-12 4-19 10-15 10-13 10-4 2h-7l6-8 13-10 14-8 15-6z"/>
        <path fill="#956A24" d="M464 865h2l5 8-1 3-14 7-10 7h-4l-5-7-1-4 16-7z"/>
        <path fill="#BE1714" d="M493 241h5v2l-5 3-7 8-3 10-2 16-1 20v19l1 29 2 5h-2l-3-5-1-18-1-32-1-14 5-27 4-9 7-6z"/>
        <path fill="#C9CBCD" d="m855 421 5 1 3 7 1 5v13l-3 8-5 1-3-4-2-7v-15l3-8z"/>
        <path fill="#EFEFF0" d="m543 818 7 1 5 4 1 2v8l-4 5-2 1h-8l-6-5-1-2 1-9 5-4z"/>
        <path fill="#956A24" d="M534 786h3v25l-5-1-18-10 6-7 8-5z"/>
        <path fill="#956A24" d="m554 786 6 1 9 5 8 7-2 3-16 8-4 1-1-1z"/>
        <path fill="#901A16" d="m556 845 16 8 5 3-2 4-13 8-5 2h-3v-23z"/>
        <path fill="#EBEBEC" d="m556 841 16 8 11 6-2 4-5 5-9 7-12 4h-4v-31zm0 4-2 2v23l5-1 12-6 6-5-1-3-19-10z"/>
        <path fill="#EFEFF0" d="m551 781 9 2 10 5 10 9 3 3v2l-12 6-14 8-5-2-1-1zm3 5v24l3 1 15-8 5-3-4-5-9-6-6-3z"/>
        <path fill="#ECEDED" d="M537 781h3v32l-3 2-4-1-23-12-1-4 9-9 12-6zm-3 5-9 4-8 6-3 4 20 11h3v-25z"/>
        <path fill="#931815" d="m506 816 6 2 14 8v5l-18 10h-2l-2-13 1-10z"/>
        <path fill="#051B2F" d="M747 331h5l1 1 1 29 10 2 1 1v7l-12-1-6-1z"/>
        <path fill="#EEEEEF" d="m470 837 3 1 4 13-1 4-6 8 1 6 2 5 10-2h5l11 11-1 16 5 2 4 3-3 1-8-5 1-15-10-10-23 8-9 3-5 2 1-3 12-7 7-3-2-4-3-9 5-4 4-4z"/>
        <path fill="#EFF0F0" d="M506 425h34l2 3-3 5-2 1h-31l-1-1v-7z"/>
        <path fill="#911C16" d="m534 845 3 1v23l-6-1-10-6-5-4v-3z"/>
        <path fill="#E4E5E5" d="m382 290 50 1v1l-5 1-44 3-23 2-3-4v-3z"/>
        <path fill="#051B2F" d="m847 351 6 1 3 11h2l1-5 2-4 6 1-2 6-5 11-1 15-5-1-1-16-6-16z"/>
        <path fill="#051B2F" d="m642 408 4 2 3 7v12l-3 7-3 1-4-4-2-7v-9l3-8z"/>
        <path fill="#EBECED" d="m469 790 5 5 3 5-4 16-13 6v9l1 2-4-1-1-12-5-5-4-5-1-5 7-8 5-5h11zm-9 5-9 9v5l8 8 1 2 6-1 5-3 4-16-3-4z"/>
        <path fill="#051B2F" d="m454 401 5 5 1 3v13l-3 7-4 1-3-4-1-3v-15l3-6z"/>
        <path fill="#F1F2F2" d="M363 263h7l1 1v11l-1 7-1 1h-12l-1-2 2-15z"/>
        <path fill="#F0F0F1" d="M227 368h11l2 1-1 13h-20l2-9 3-4z"/>
        <path fill="#EAEAEB" d="m593 398 6 1 4 5 3 9v9l-3 9-5 5h-4l1-5 3-8v-12l-4-10z"/>
        <path fill="#051B2F" d="m677 411 4 1 3 7v13l-3 6-2 1-4-3-2-7v-10l3-7z"/>
        <path fill="#FEFEFE" d="M394 407h10l4 4v6l-3 3-7 1-9-3-2-2 1-5z"/>
        <path fill="#E8E9EA" d="M500 392h14l22 1 4 3v3h-22l-16-1-2-1z"/>
        <path fill="#C8CACC" d="M444 393h1v38l1 8-5-5-3-9-1-13 2-10 4-8z"/>
        <path fill="#051B2F" d="m769 335 6 1v37l-6-1z"/>
        <path fill="#051B2F" d="M278 424h48l-4 3-4 2h-36l-5-3z"/>
        <path fill="#EFF0F0" d="m702 329 5 2 3 3 1 3v12l-4 5h-5l-1-1v-23z"/>
        <path fill="#C8CACC" d="M379 480h75l1 1v46l-4-1 2-1v-44l-3 1h-64l-21 1 4-2z"/>
        <path fill="#C8CACC" d="m688 244 5 1-4 1v58l9 2v-22l4 1 1 5-2-4-1 1v19l-5 1-7-2-1-1v-59z"/>
        <path fill="#E3E4E5" d="m806 708 25 3 22 3v2l-47-1-2-5z"/>
        <path fill="#C8CACC" d="M682 480h86l-1 3-1-2-13 1-68 1 2 4-5-4z"/>
        <path fill="#E4E5E6" d="m278 709 3 1-1 6-42 1v-2l26-4z"/>
        <path fill="#ECECED" d="m699 258 6 1 4 5v8l-2 3h-7l-2-2v-14z"/>
        <path fill="#ECEDED" d="m531 351 7 1 1 1v10l-3 7-3 1-3-4-1-4v-8z"/>
        <path fill="#C8CACC" d="m957 552 3 1-1 122h-1l-1-117-2 2 1-6z"/>
        <path fill="#C8CACC" d="M458 227h9l-4 2-27 2-16 2v-1l-17 1-22 4-12 3 1-2 13-4 19-3z"/>
        <path fill="#051B2F" d="M353 409h19l2 1-2 4-3 1h-19l-1-4z"/>
        <path fill="#956A24" d="m584 816 3 1 1 11-15-1-4-2 8-5z"/>
        <path fill="#051B2F" d="m830 424 4 1 1 3v14l-4 4-3-4v-15z"/>
        <path fill="#DDDEE0" d="m504 748 3 1-3 3-5 3v16l-8 7-2 3h-16l-3 5-2 4-2-4 4-7 3-1 14 1 7-8 4-2-2-16z"/>
        <path fill="#EAEBEC" d="m859 425 2 2 2 10-1 16-2 3-5-1-2-3v-6h2v2l3-1 1-3v-12l-1-5z"/>
        <path fill="#F6F7F7" d="M836 428h2l1 4v11l-2 10-2 2-5-1-2-3-1-9h2l1 4 4-1 2-7z"/>
        <path fill="#C8CACC" d="M677 401h5l5 6 3 8v5l-2-4-1-5h-5l-1 2-4-2v-2h-4l1-5z"/>
        <path fill="#980D14" d="m485 256 2 1-3 26-1 9-3 1v-13l3-21z"/>
        <path fill="#051B2F" d="m856 428 3 1 1 3v12l-2 4h-3l-2-6v-9z"/>
        <path fill="#C8CACC" d="m746 329 7 1 1 1v30h-1l-1-29-5-1v38l13 1 5 1v1l-14-1-5-1-1-40z"/>
        <path fill="#DADBDC" d="M677 790h1v5l-62 1 3-5 20 1v1l38 1z"/>
        <path fill="#051B2F" d="M234 409h16l-2 4-3 2h-14l-2-2v-3z"/>
        <path fill="#892419" d="M567 830h8l13 2-1 7h-4l-16-8z"/>
        <path fill="#956A24" d="m544 823 5 1 2 2v6l-5 3-5-3-1-1v-5z"/>
        <path fill="#CECFD1" d="m492 641 1 3-4 6h55l1-2 1 4-63 1 1-3 5-5z"/>
        <path fill="#E5E6E7" d="m470 837 3 1 4 13-1 4-6 8 1 6 1 3-4-1-3-9 5-4 4-4z"/>
        <path fill="#DCDDDF" d="M539 739h11l2 3-1 3-2-3h-9l-6 13-14 4-4-1-1-2 7-1 11-3z"/>
        <path fill="#E1E2E3" d="m674 407 1 2h2l-1 4-2 6v10l1 7-4-4-1-10 2-13h2z"/>
        <path fill="#C8CACC" d="M537 235h3v14l-1 22h-1l-1-5z"/>
        <path fill="#E9E9EA" d="M528 824h1v9l-17 9-3 1 2-5 13-7h2l1-4z"/>
        <path fill="#DCDDDE" d="m590 766 12 12v2l5-1h12l4 7-1 3-4-5-1-4-16 1-11-11z"/>
        <path fill="#F4F4F4" d="m227 413 2 1 19 1-2 4h-16l-3-3z"/>
        <path fill="#C8CACC" d="m831 415 4 2 4 9 1 5v13l-2 7-1-3 1-5v-11l-3-11-8 1 1-5z"/>
        <path fill="#DDDEE0" d="m488 873 7 6 4 4-1 16 5 2 4 3-3 1-8-5 1-15-9-9z"/>
        <path fill="#C8CACC" d="m818 480 61 1-1 2-59-1-1 2z"/>
        <path fill="#DCDDDE" d="m472 794 4 4 1 4-4 14-11 5h-2v-2l10-4 4-16z"/>
        <path fill="#C8CACC" d="M658 338h3l5 8-1 3h-6l-2-4z"/>
        <path fill="#CDCED0" d="m854 424 1 3 2 1-3 5v13l-2 3-1-4v-15l1-4h2z"/>
        <path fill="#E5E6E7" d="m531 843 2 1-2 4-11 6h-2v-4z"/>
        <path fill="#CED0D2" d="M826 422h1l1 5v22l-2-3-1-6v-12z"/>
        <path fill="#F5F5F5" d="m533 842 6 1 1 5-1 20h-1l-1-21-6-2z"/>
        <path fill="#DFE0E1" d="m834 354 5 2v6l-4 2-2-1v-8z"/>
        <path fill="#E0E1E2" d="m555 752 17 4 5-2-5 5-5-1-11-3z"/>
        <path fill="#DCDDDE" d="m472 778 13 2-4 1h-8l-3 5-2 4-2-4 4-7z"/>
        <path fill="#A41016" d="M493 410h2v14h-3l-1-3v-7z"/>
        <path fill="#C8CACC" d="M778 661h14l6 1h9l1 3-30-3z"/>
        <path fill="#C8CACC" d="M446 676h11l7 2 1 2v9l-2 1-2-2h2v-9l-7-1h-14z"/>
        <path fill="#D4D5D7" d="m410 209 2 1-11 11h6l-3 2h-7l6-8z"/>
        <path fill="#D8DADB" d="M601 872h5l-5 4-9 9-2 3v-5l7-6z"/>
        <path fill="#EAEBEC" d="M498 766h1v5l-8 7-2 3-4-1 11-11h2z"/>
        <path fill="#DEDFE1" d="m517 895 8 1 9 3 2 3-1 3-2-4-14-4z"/>
        <path fill="#DEDFE1" d="m662 320 4 1v6l-4 2-1-2v-6z"/>
        <path fill="#D9DADC" d="m621 864 2 1-2 6-3 4-12-1v-1h10z"/>
        <path fill="#E8E9EA" d="m674 407 1 2h2l-1 4-2 6-3-3 1-7h2z"/>
        <path fill="#DEDEDD" d="m468 859 2 1-2 3 4 9-4-1-3-9z"/>
        <path fill="#D1D3D4" d="m831 415 3 1v5l-7 1 1-5z"/>
        <path fill="#DEE0E1" d="m583 748 6 2 4 3-1 4v-2l-5-2-6-3z"/>
        <path fill="#C8CACC" d="m308 660 2 2-1 1-16 2h-8v-1l21-3z"/>
        <path fill="#E2E3E4" d="m577 816 2 1v3l-9 4v-4z"/>
        <path fill="#DDDEE0" d="M528 824h1v9l-6 2 1-4h2l1-4z"/>
        <path fill="#EDEDEE" d="M539 739h11l2 3-1 3-2-3-10-1z"/>
        <path fill="#C9CBCD" d="M427 229h12l-3 2-12 1v-2z"/>
        <path fill="#C9CBCD" d="M466 185h5l-4 2-13 4-3-2z"/>
        <path fill="#D7D8DA" d="m459 880 2 1-1 1 3 2-11 3-2 1 1-3z"/>
        <path fill="#E0E1E2" d="m592 896 1 4-8 5-3-1 4-3 5-3z"/>
        <path fill="#DADCDD" d="m854 424 1 3 2 1-3 5h-3l1-7h2z"/>
        <path fill="#FEFEFE" d="m659 339 4 5 1 4-5-1z"/>
    </g>
</svg>
